<?xml version="1.0" encoding="UTF-8" standalone="no"?>
<!DOCTYPE svg PUBLIC "-//W3C//DTD SVG 1.1//EN" "http://www.w3.org/Graphics/SVG/1.1/DTD/svg11.dtd">
<svg width="100%" height="100%" viewBox="0 0 200 110" version="1.1" xmlns="http://www.w3.org/2000/svg" xmlns:xlink="http://www.w3.org/1999/xlink" xml:space="preserve" xmlns:serif="http://www.serif.com/" style="fill-rule:evenodd;clip-rule:evenodd;stroke-linejoin:round;stroke-miterlimit:2;">
    <g transform="matrix(1,0,0,1,-1279.647879,-1251.491188)">
        <g transform="matrix(1,0,0,1,-491.641447,-311.363563)">
            <g transform="matrix(1,0,0,1,-602.76113,212.100407)">
                <g transform="matrix(1,0,0,1,694.219107,61.109746)">
                    <g transform="matrix(0.772557,0,0,0.772557,1295.890126,856.01637)">
                        <path d="M615.835,614.908L615.826,614.89L638.506,567.825L638.569,567.801L615.835,614.908ZM660.494,607.661L660.511,607.667L645.596,636.937L645.581,636.932L660.494,607.661ZM630.529,666.477L630.542,666.481L617.387,692.297L617.377,692.293L630.529,666.477ZM668.765,610.062C669.964,610.363 671.208,610.658 672.497,610.947C676.989,611.957 681.758,612.998 686.804,614.072C691.85,615.147 697.058,616.319 702.429,617.588C707.8,618.858 713.008,620.339 718.054,622.031C723.1,623.724 727.868,625.694 732.361,627.94C736.853,630.186 740.792,632.806 744.177,635.801C747.562,638.796 750.232,642.246 752.185,646.153C754.138,650.059 755.114,654.518 755.114,659.531C755.114,665.977 753.975,671.511 751.697,676.133C749.418,680.755 746.374,684.662 742.566,687.852C738.757,691.042 734.346,693.597 729.333,695.518C724.32,697.438 719.063,698.919 713.562,699.961C708.06,701.003 702.494,701.686 696.863,702.012C691.231,702.337 685.876,702.5 680.798,702.5C667.517,702.5 655.228,701.41 643.933,699.229C643.451,699.136 642.972,699.042 642.495,698.947L650.465,671.981C660.159,673.903 670.4,674.863 681.189,674.863C688.871,674.863 695.137,674.457 699.988,673.643C704.838,672.829 708.63,671.787 711.364,670.518C714.099,669.248 715.954,667.865 716.931,666.367C717.907,664.87 718.396,663.438 718.396,662.071C718.396,659.922 717.419,658.05 715.466,656.455C713.513,654.86 710.844,653.46 707.458,652.256C704.073,651.052 700.134,649.945 695.642,648.936C691.15,647.927 686.381,646.918 681.335,645.908C676.29,644.899 671.098,643.809 665.759,642.637C663.674,642.179 661.612,641.689 659.572,641.167L668.765,610.062Z" style="fill:rgb(249,249,249);fill-rule:nonzero;"/>
                    </g>
                </g>
                <path d="M2507.545,1372.513L2463.236,1459.486L2429.049,1459.486L2374.05,1350.754L2406.812,1350.754L2439.772,1418.915L2434.093,1457.974L2446.355,1432.528L2446.38,1432.58L2483.44,1355.785C2486.672,1354.554 2490.053,1353.582 2493.582,1352.867C2497.556,1352.062 2501.579,1351.509 2505.653,1351.207C2509.727,1350.905 2513.6,1350.754 2517.272,1350.754C2517.722,1350.754 2518.173,1350.757 2518.626,1350.762C2522.222,1350.802 2525.908,1351.001 2529.683,1351.358C2533.933,1351.76 2538.12,1352.326 2542.244,1353.055C2546.369,1353.785 2550.355,1354.627 2554.202,1355.583C2558.05,1356.538 2561.609,1357.544 2564.878,1358.601L2564.878,1382.592C2562.916,1381.637 2560.326,1380.555 2557.107,1379.348C2553.888,1378.141 2550.241,1376.997 2546.167,1375.915C2542.093,1374.834 2537.667,1373.929 2532.889,1373.199C2528.111,1372.47 2523.207,1372.105 2518.177,1372.105C2515.756,1372.105 2513.548,1372.151 2511.555,1372.242L2516.879,1354.227L2507.562,1372.511L2507.545,1372.513Z" style="fill:white;"/>
            </g>
        </g>
    </g>
</svg>
