<?xml version="1.0" encoding="UTF-8" standalone="no"?>
<!DOCTYPE svg PUBLIC "-//W3C//DTD SVG 1.1//EN" "http://www.w3.org/Graphics/SVG/1.1/DTD/svg11.dtd">
<svg width="100%" height="100%" viewBox="0 0 845 115" version="1.1" xmlns="http://www.w3.org/2000/svg" xmlns:xlink="http://www.w3.org/1999/xlink" xml:space="preserve" xmlns:serif="http://www.serif.com/" style="fill-rule:evenodd;clip-rule:evenodd;stroke-linejoin:round;stroke-miterlimit:2;">
    <g transform="matrix(1,0,0,1,-3335.01701,-655.650367)">
        <g transform="matrix(0.810342,0,0,0.810342,2994.707263,200.814154)">
            <path d="M704.529,644.102L704.529,698.887L668.396,698.887L668.396,644.102L603.357,564.707L643.982,564.707L686.56,618.711L728.943,564.707L769.568,564.707L704.529,644.102Z" style="fill:white;fill-rule:nonzero;"/>
            <path d="M904.2,602.5C901.661,601.263 898.308,599.863 894.142,598.301C889.975,596.738 885.255,595.257 879.982,593.858C874.708,592.458 868.979,591.286 862.794,590.342C856.609,589.398 850.262,588.926 843.751,588.926C838.543,588.926 834.1,589.089 830.421,589.414C826.743,589.74 823.65,590.163 821.144,590.684C818.637,591.205 816.652,591.807 815.187,592.49C813.722,593.174 812.599,593.874 811.818,594.59C811.036,595.306 810.532,596.022 810.304,596.738C810.076,597.455 809.962,598.106 809.962,598.692C809.962,600.645 810.939,602.354 812.892,603.819C814.845,605.283 817.514,606.585 820.9,607.725C824.285,608.864 828.224,609.938 832.716,610.947C837.208,611.957 841.977,612.998 847.023,614.072C852.068,615.147 857.277,616.319 862.648,617.588C868.019,618.858 873.227,620.339 878.273,622.031C883.318,623.724 888.087,625.694 892.579,627.94C897.072,630.186 901.01,632.806 904.396,635.801C907.781,638.796 910.45,642.246 912.404,646.153C914.357,650.059 915.333,654.518 915.333,659.531C915.333,665.977 914.194,671.511 911.915,676.133C909.637,680.755 906.593,684.662 902.784,687.852C898.976,691.042 894.565,693.597 889.552,695.518C884.539,697.438 879.282,698.919 873.78,699.961C868.279,701.003 862.713,701.686 857.081,702.012C851.45,702.337 846.095,702.5 841.017,702.5C827.736,702.5 815.447,701.41 804.152,699.229C792.856,697.048 782.879,694.33 774.22,691.074L774.22,659.043C783.139,663.991 793.312,667.865 804.738,670.664C816.163,673.464 828.387,674.863 841.407,674.863C849.09,674.863 855.356,674.457 860.206,673.643C865.057,672.829 868.849,671.787 871.583,670.518C874.318,669.248 876.173,667.865 877.15,666.367C878.126,664.87 878.614,663.438 878.614,662.071C878.614,659.922 877.638,658.05 875.685,656.455C873.732,654.86 871.062,653.46 867.677,652.256C864.292,651.052 860.353,649.945 855.861,648.936C851.368,647.927 846.6,646.918 841.554,645.908C836.508,644.899 831.316,643.809 825.978,642.637C820.639,641.465 815.447,640.082 810.402,638.487C805.356,636.891 800.587,635.036 796.095,632.92C791.603,630.804 787.664,628.298 784.279,625.401C780.893,622.503 778.224,619.151 776.271,615.342C774.318,611.533 773.341,607.123 773.341,602.11C773.341,596.185 774.383,591.074 776.466,586.778C778.549,582.481 781.365,578.819 784.913,575.791C788.461,572.764 792.563,570.306 797.218,568.418C801.873,566.53 806.772,565.065 811.915,564.024C817.058,562.982 822.267,562.266 827.54,561.875C832.814,561.485 837.827,561.289 842.579,561.289C847.788,561.289 853.142,561.55 858.644,562.071C864.145,562.591 869.565,563.324 874.904,564.268C880.242,565.212 885.402,566.302 890.382,567.539C895.363,568.776 899.969,570.078 904.2,571.446L904.2,602.5Z" style="fill:white;fill-rule:nonzero;"/>
            <path d="M1085.462,689.707C1080.775,691.66 1076.055,693.418 1071.302,694.981C1066.549,696.543 1061.634,697.894 1056.556,699.033C1051.478,700.173 1046.123,701.035 1040.491,701.621C1034.86,702.207 1028.822,702.5 1022.376,702.5C1008.704,702.5 996.123,701.035 984.632,698.106C973.141,695.176 963.245,690.765 954.945,684.873C946.644,678.981 940.182,671.625 935.56,662.803C930.937,653.981 928.626,643.679 928.626,631.895C928.626,620.111 930.937,609.808 935.56,600.987C940.182,592.165 946.644,584.808 954.945,578.916C963.245,573.024 973.141,568.613 984.632,565.684C996.123,562.754 1008.704,561.289 1022.376,561.289C1028.822,561.289 1034.86,561.582 1040.491,562.168C1046.123,562.754 1051.478,563.617 1056.556,564.756C1061.634,565.895 1066.549,567.246 1071.302,568.809C1076.055,570.371 1080.775,572.129 1085.462,574.082L1085.462,606.699C1081.751,604.681 1077.845,602.679 1073.743,600.694C1069.642,598.708 1065.117,596.918 1060.169,595.322C1055.221,593.727 1049.785,592.425 1043.861,591.416C1037.936,590.407 1031.263,589.903 1023.841,589.903C1012.448,589.903 1002.991,591.074 995.472,593.418C987.952,595.762 981.947,598.887 977.454,602.793C972.962,606.699 969.805,611.175 967.982,616.221C966.159,621.266 965.247,626.491 965.247,631.895C965.247,635.475 965.638,639.007 966.419,642.49C967.2,645.974 968.502,649.261 970.325,652.354C972.148,655.446 974.525,658.294 977.454,660.899C980.384,663.503 984.03,665.749 988.392,667.637C992.754,669.525 997.848,671.006 1003.675,672.08C1009.502,673.155 1016.224,673.692 1023.841,673.692C1031.263,673.692 1037.936,673.22 1043.861,672.276C1049.785,671.332 1055.221,670.078 1060.169,668.516C1065.117,666.953 1069.642,665.179 1073.743,663.194C1077.845,661.208 1081.751,659.173 1085.462,657.09L1085.462,689.707Z" style="fill:white;fill-rule:nonzero;"/>
            <path d="M1284.884,631.895C1284.884,643.418 1282.768,653.591 1278.536,662.412C1274.305,671.234 1268.25,678.607 1260.372,684.531C1252.495,690.456 1242.941,694.932 1231.71,697.959C1220.48,700.987 1207.866,702.5 1193.868,702.5C1179.871,702.5 1167.225,700.987 1155.929,697.959C1144.633,694.932 1135.014,690.456 1127.072,684.531C1119.129,678.607 1113.009,671.234 1108.712,662.412C1104.415,653.591 1102.267,643.418 1102.267,631.895C1102.267,620.371 1104.415,610.199 1108.712,601.377C1113.009,592.556 1119.129,585.182 1127.072,579.258C1135.014,573.334 1144.633,568.858 1155.929,565.83C1167.225,562.803 1179.871,561.289 1193.868,561.289C1207.866,561.289 1220.48,562.803 1231.71,565.83C1242.941,568.858 1252.495,573.334 1260.372,579.258C1268.25,585.182 1274.305,592.556 1278.536,601.377C1282.768,610.199 1284.884,620.371 1284.884,631.895ZM1248.263,631.895C1248.263,626.882 1247.465,621.885 1245.87,616.905C1244.275,611.924 1241.443,607.448 1237.374,603.477C1233.305,599.505 1227.755,596.283 1220.724,593.809C1213.693,591.335 1204.741,590.098 1193.868,590.098C1186.577,590.098 1180.164,590.668 1174.63,591.807C1169.096,592.946 1164.311,594.525 1160.275,596.543C1156.238,598.561 1152.853,600.921 1150.118,603.623C1147.384,606.325 1145.203,609.222 1143.575,612.315C1141.948,615.407 1140.792,618.63 1140.109,621.983C1139.425,625.335 1139.083,628.64 1139.083,631.895C1139.083,635.215 1139.425,638.568 1140.109,641.953C1140.792,645.339 1141.948,648.578 1143.575,651.67C1145.203,654.763 1147.384,657.643 1150.118,660.313C1152.853,662.982 1156.238,665.309 1160.275,667.295C1164.311,669.281 1169.096,670.843 1174.63,671.983C1180.164,673.122 1186.577,673.692 1193.868,673.692C1204.741,673.692 1213.693,672.455 1220.724,669.981C1227.755,667.507 1233.305,664.284 1237.374,660.313C1241.443,656.341 1244.275,651.865 1245.87,646.885C1247.465,641.905 1248.263,636.908 1248.263,631.895Z" style="fill:white;fill-rule:nonzero;"/>
            <path d="M1340.122,698.887L1303.892,698.887L1303.892,564.707L1394.712,564.707C1404.478,564.707 1412.762,565.716 1419.566,567.735C1426.369,569.753 1431.903,572.617 1436.167,576.328C1440.432,580.039 1443.524,584.515 1445.445,589.756C1447.365,594.997 1448.325,600.84 1448.325,607.285C1448.325,612.949 1447.528,617.897 1445.933,622.129C1444.338,626.361 1442.189,629.99 1439.488,633.018C1436.786,636.045 1433.644,638.6 1430.064,640.684C1426.483,642.767 1422.707,644.492 1418.736,645.86L1462.681,698.887L1420.298,698.887L1379.673,649.473L1340.122,649.473L1340.122,698.887ZM1411.704,607.09C1411.704,604.486 1411.363,602.272 1410.679,600.449C1409.995,598.627 1408.807,597.145 1407.114,596.006C1405.422,594.867 1403.159,594.037 1400.327,593.516C1397.495,592.995 1393.963,592.735 1389.732,592.735L1340.122,592.735L1340.122,621.446L1389.732,621.446C1393.963,621.446 1397.495,621.185 1400.327,620.664C1403.159,620.143 1405.422,619.313 1407.114,618.174C1408.807,617.035 1409.995,615.554 1410.679,613.731C1411.363,611.908 1411.704,609.694 1411.704,607.09Z" style="fill:white;fill-rule:nonzero;"/>
            <g transform="matrix(1.234047,0,0,1.234047,-2954.657522,-983.817266)">
                <path d="M2879.172,1254.834L2823.778,1363.566L2789.591,1363.566L2734.593,1254.834L2767.354,1254.834L2800.314,1322.995L2794.635,1362.054L2846.41,1254.834L2879.172,1254.834Z" style="fill:white;"/>
            </g>
        </g>
    </g>
</svg>
